HIERARCHY
ROOT root
{
	OFFSET	0	13.1	24.9
	CHANNELS 6  Xposition Yposition Zposition Xrotation Yrotation Zrotation
	JOINT spine_1
	{
		OFFSET	0	9.99999	0
		CHANNELS 3  Xrotation Yrotation Zrotation
		JOINT spine_2
		{
			OFFSET	0	112	-10
			CHANNELS 3  Xrotation Yrotation Zrotation
			JOINT spine_3
			{
				OFFSET	0	206.5	19.3
				CHANNELS 3  Xrotation Yrotation Zrotation
				JOINT spine_4
				{
					OFFSET	0	110.4	14.6
					CHANNELS 3  Xrotation Yrotation Zrotation
					JOINT neck_1
					{
						OFFSET	0	71.8	-50.3
						CHANNELS 3  Xrotation Yrotation Zrotation
						JOINT neck_2
						{
							OFFSET	0	86.2	-25.8
							CHANNELS 3  Xrotation Yrotation Zrotation
							JOINT head_ee
							{
								OFFSET	0	179.8	-8.7
								CHANNELS 3  Xrotation Yrotation Zrotation
								End Site
								{
									OFFSET	1	0	0
								}
							}
						}
					}
					JOINT left_clavicle
					{
						OFFSET	-43.2	22.4	-70.8
						CHANNELS 3  Xrotation Yrotation Zrotation
						JOINT left_shoulder
						{
							OFFSET	-93.9	-5.79999	48.7
							CHANNELS 3  Xrotation Yrotation Zrotation
							JOINT left_elbow
							{
								OFFSET	-291.4	-30.8	15.2
								CHANNELS 3  Xrotation Yrotation Zrotation
								JOINT left_lowarm_twist
								{
									OFFSET	-110.7	-3.89999	13.6
									CHANNELS 3  Xrotation Yrotation Zrotation
									JOINT left_hand
									{
										OFFSET	-110.7	-3.89999	13.6
										CHANNELS 3  Xrotation Yrotation Zrotation
										JOINT left_ee
										{
											OFFSET	-80.8	-5.10001	12.1
											CHANNELS 3  Xrotation Yrotation Zrotation
											End Site
											{
												OFFSET	1	0	0
											}
										}
									}
								}
							}
						}
					}
					JOINT right_clavicle
					{
						OFFSET	43.2	22.4	-70.8
						CHANNELS 3  Xrotation Yrotation Zrotation
						JOINT right_shoulder
						{
							OFFSET	93.9	-5.79999	48.7
							CHANNELS 3  Xrotation Yrotation Zrotation
							JOINT right_elbow
							{
								OFFSET	291.4	-30.8	15.2
								CHANNELS 3  Xrotation Yrotation Zrotation
								JOINT right_lowarm_twist
								{
									OFFSET	110.7	-3.89999	13.6
									CHANNELS 3  Xrotation Yrotation Zrotation
									JOINT right_hand
									{
										OFFSET	110.7	-3.89999	13.6
										CHANNELS 3  Xrotation Yrotation Zrotation
										JOINT right_ee
										{
											OFFSET	80.8	-5.10001	12.1
											CHANNELS 3  Xrotation Yrotation Zrotation
											End Site
											{
												OFFSET	1	0	0
											}
										}
									}
								}
							}
						}
					}
				}
			}
		}
	}
	JOINT left_hip
	{
		OFFSET	-82.8	-127.5	0.300001
		CHANNELS 3  Xrotation Yrotation Zrotation
		JOINT left_knee
		{
			OFFSET	-28.2	-396.7	2.2
			CHANNELS 3  Xrotation Yrotation Zrotation
			JOINT left_ankle
			{
				OFFSET	-11.7	-411.3	35.4
				CHANNELS 3  Xrotation Yrotation Zrotation
				JOINT left_toes
				{
					OFFSET	0	-60	-88.6
					CHANNELS 3  Xrotation Yrotation Zrotation
					JOINT left_foot_ee
					{
						OFFSET	-22.5	-16.5	-42.2
						CHANNELS 3  Xrotation Yrotation Zrotation
						End Site
						{
							OFFSET	1	0	0
						}
					}
				}
			}
		}
	}
	JOINT right_hip
	{
		OFFSET	82.8	-127.5	0.300001
		CHANNELS 3  Xrotation Yrotation Zrotation
		JOINT right_knee
		{
			OFFSET	28.2	-396.7	2.2
			CHANNELS 3  Xrotation Yrotation Zrotation
			JOINT right_ankle
			{
				OFFSET	11.7	-411.3	35.4
				CHANNELS 3  Xrotation Yrotation Zrotation
				JOINT right_toes
				{
					OFFSET	0	-60	-88.6
					CHANNELS 3  Xrotation Yrotation Zrotation
					JOINT right_foot_ee
					{
						OFFSET	22.5	-16.5	-42.2
						CHANNELS 3  Xrotation Yrotation Zrotation
						End Site
						{
							OFFSET	1	0	0
						}
					}
				}
			}
		}
	}
}
MOTION
Frames: 8
Frame Time: 0.02
3177.02 653.055 -1669.29 8.51055271616 69.6832881784 -0.960685799069 -1.91743 -0.273844 -1.57274 -1.91607 -0.173224 -1.58697 -1.9098 0.217049 -1.58157 -1.91329 -0.0354219 -1.596 -4.4566 6.24516 4.60198 -4.39379 7.95321 5.73925 -0.0 0.0 -0.0 1.52975 21.1418 4.6561 -24.1756 -23.729 74.4467 0.211246 -5.97412 0.0110231 -44.9813 -3.49581 4.39503 1.29028 18.103 15.3319 -0.0 0.0 -0.0 3.86055 23.0715 -5.68318 26.0854 26.6549 -68.4965 2.84882 54.668 -1.47275 34.1533 0.080578 4.29819 1.78434 4.24747 -10.272 0.0 0.0 0.0 19.4002 -5.8136 -15.9867 4.45409 -0.208876 -0.651291 4.83832 22.7607 -0.722297 -16.4018 0.0 0.0 -0.0 0.0 -0.0 -21.3542 30.8216 -7.66685 -4.18027 -0.149401 -0.624007 37.6776 -1.57653 4.66052 -4.42158 0.0 0.0 0.0 0.0 0.0 
3130.30724821 661.799 -1656.5488801 8.21602095163 69.5078021229 -1.43951269186 -1.91921 -0.191556 -1.17681 -1.91845 -0.11629 -1.18662 -1.91523 0.175236 -1.17936 -1.91717 -0.0132068 -1.19223 -1.15779 4.37179 1.30162 -1.13051 6.80646 1.9078 -0.0 0.0 -0.0 2.40615 21.5569 5.93635 -25.2442 -23.2872 73.0209 0.272518 -7.68848 0.018312 -46.4417 -3.66079 4.48398 2.54731 19.411 23.8397 -0.0 0.0 -0.0 3.96774 22.1233 -6.00768 20.795 25.014 -66.12 3.10868 56.9893 -1.68779 33.5768 0.0579758 4.22806 2.44355 10.0334 -12.32 0.0 0.0 0.0 18.8529 -5.40995 -12.242 0.480915 -0.0201016 -0.0710618 4.97522 23.8577 -0.746313 -13.5693 0.0 0.0 -0.0 0.0 -0.0 -22.2789 34.8609 -5.93271 -9.43378 -0.271974 -1.42061 32.1527 -4.90823 4.1144 -1.03086 0.0 0.0 0.0 0.0 0.0 
3111.00855026 669.802 -1656.74721591 8.64895072198 70.2926678149 -2.08560481807 -1.81882 -0.148922 -0.984508 -1.81829 -0.0859761 -0.991988 -1.81625 0.155696 -0.98346 -1.8176 -0.00156915 -0.995705 -3.52281 4.54096 1.30994 -3.50279 7.26717 2.04523 -0.0 0.0 -0.0 2.84088 21.5862 6.56015 -24.1943 -22.9701 70.6841 0.217897 -6.16079 0.0117261 -47.798 -3.816 4.56281 2.96298 20.0333 26.7958 -0.0 0.0 -0.0 3.8298 21.136 -5.80423 16.3055 23.4985 -66.3949 3.57956 60.5639 -2.09066 31.1558 -0.0291888 3.93119 2.32184 9.16999 -11.8622 0.0 0.0 0.0 17.8603 -5.58944 -11.2268 -0.69597 0.028031 0.103126 5.26208 23.996 -0.789277 -13.8148 0.0 0.0 -0.0 0.0 -0.0 -21.5066 36.6073 -6.37529 -11.1994 -0.296706 -1.69039 27.8781 -3.587 3.6613 -1.67729 0.0 0.0 0.0 0.0 0.0 
3091.81789535 675.891 -1653.32713048 8.47356918841 71.0071616689 -1.77576155136 -1.72818 -0.171997 -0.806857 -1.72782 -0.120308 -0.816165 -1.72572 0.0786863 -0.821223 -1.72666 -0.0519936 -0.823344 -4.80907 5.0257 1.9359 -4.78967 7.77078 2.83063 -0.0 0.0 -0.0 3.1769 21.6925 7.04446 -23.1764 -23.9749 69.6666 0.22893 -6.47016 0.0129399 -48.601 -3.90874 4.60774 3.43431 20.2243 30.1077 -0.0 0.0 -0.0 3.82447 19.9719 -5.90246 13.4584 22.162 -66.4887 4.00535 63.2338 -2.46636 29.8936 -0.0696317 3.77505 2.00746 8.82656 -9.85225 0.0 0.0 0.0 17.7871 -5.85408 -10.9962 -1.1633 0.0461486 0.172557 4.32784 24.7015 -0.653069 -14.8153 0.0 0.0 -0.0 0.0 -0.0 -20.7152 37.945 -6.44381 -12.8238 -0.312106 -1.93915 23.4244 -3.21374 3.15219 -2.61232 0.0 0.0 0.0 0.0 0.0 
3051.18595446 685.672 -1656.10208236 8.70010095711 71.6037046479 -1.49620469979 -1.52002 -0.0327468 -0.923639 -1.51955 0.0260906 -0.923851 -1.5196 0.24343 -0.891587 -1.52069 0.0995714 -0.918841 -4.21943 4.58248 2.29198 -4.19764 6.64039 3.09409 -0.0 0.0 -0.0 4.3745 21.3312 8.77259 -21.9837 -25.8465 66.2699 0.230592 -6.51671 0.0131277 -51.7826 -4.2821 4.77287 4.12006 21.1045 35.2803 -0.0 0.0 -0.0 4.40903 20.3416 -7.12898 10.2642 20.5275 -67.0966 3.02711 56.2903 -1.61966 26.7347 -0.155681 3.38076 1.21999 7.50413 -5.05774 0.0 0.0 0.0 16.8194 -6.42951 -10.4111 -7.15259 0.227732 1.07338 11.8666 19.2614 -1.70982 -13.5172 0.0 0.0 -0.0 0.0 -0.0 -18.4762 40.0355 -7.22022 -14.4777 -0.320536 -2.19276 13.8846 2.4302 1.97583 -6.11655 0.0 0.0 0.0 0.0 0.0 
3030.92316457 688.437 -1661.80407967 9.99946820864 71.5334981728 -2.42010533711 -1.5487 -0.129347 -1.01388 -1.54813 -0.0645727 -1.02005 -1.54646 0.1785 -1.00639 -1.54787 0.0173286 -1.02195 -4.5553 4.80397 1.79902 -4.53668 7.44755 2.64064 -0.0 0.0 -0.0 4.75197 20.7239 9.33673 -20.3704 -26.5852 64.6844 0.23561 -6.65729 0.0137034 -51.8477 -4.28983 4.77603 4.79349 19.5591 40.2852 -0.0 0.0 -0.0 3.85573 21.787 -5.79789 8.5436 20.5655 -67.9852 2.62174 52.3955 -1.2901 26.0659 -0.171101 3.29671 0.627931 2.87106 -3.00666 0.0 0.0 0.0 15.7354 -6.1111 -10.2458 -9.64188 0.275321 1.45237 16.3994 16.6546 -2.30454 -13.8541 0.0 0.0 -0.0 0.0 -0.0 -17.4272 39.672 -7.98093 -16.7675 -0.320118 -2.54406 10.4252 8.29598 1.54039 -8.58119 0.0 0.0 0.0 0.0 0.0 
3008.70284579 696.199 -1664.95070519 9.43685695006 71.4375567498 -1.82117636308 -1.45565 -0.433406 -1.05532 -1.45511 -0.365379 -1.08075 -1.44748 -0.101434 -1.13632 -1.44918 -0.279611 -1.10605 -4.16036 4.20765 1.85393 -4.14343 6.28397 2.58177 -0.0 0.0 -0.0 5.36719 19.4387 10.2959 -18.9277 -26.5661 63.8275 0.254637 -7.18946 0.0159969 -52.7111 -4.39272 4.81713 5.14198 19.1933 43.1697 -0.0 0.0 -0.0 4.37863 19.9426 -7.09969 6.5928 20.4469 -67.7392 2.18254 47.2273 -0.954242 24.2863 -0.207341 3.07229 0.463722 2.59578 -2.01748 0.0 0.0 0.0 14.932 -5.80919 -9.74996 -10.2801 0.284867 1.54984 18.1796 14.2928 -2.52136 -14.8782 0.0 0.0 -0.0 0.0 -0.0 -14.1999 38.1761 -9.83459 -20.3654 -0.291116 -3.09524 8.11149 10.4814 1.22336 -9.99089 0.0 0.0 0.0 0.0 0.0 
2986.01129184 695.891 -1669.17385654 8.96472741306 69.9613035478 -1.17216586997 -1.43175 -0.318357 -1.07997 -1.43114 -0.248995 -1.09804 -1.42567 0.0153496 -1.12581 -1.4274 -0.162633 -1.11411 -4.27332 4.34625 2.75585 -4.24839 5.85809 3.5336 -0.0 0.0 -0.0 5.60076 18.5991 10.6855 -17.9095 -26.6473 62.7946 0.309898 -8.72779 0.023649 -53.0381 -4.43184 4.83229 5.37961 19.4704 45.3326 -0.0 0.0 -0.0 4.24068 20.0039 -6.79658 4.79401 20.3374 -67.7637 1.80583 41.8104 -0.689817 23.4056 -0.222693 2.96084 0.223287 1.25165 -0.96726 0.0 0.0 0.0 14.2185 -5.69638 -9.65722 -12.8331 0.312175 1.94058 21.5572 11.1561 -2.92961 -14.8644 0.0 0.0 -0.0 0.0 -0.0 -12.7864 37.1258 -9.81124 -24.2117 -0.221918 -3.68129 5.77862 15.5097 0.908914 -11.9155 0.0 0.0 0.0 0.0 0.0 
